<svg
  id="Layer_1"
  data-name="Layer 1"
  xmlns="http://www.w3.org/2000/svg"
  viewBox="0 0 125 125"
>
  <defs>
    <style>
      .cls-1 {
        fill: #2f2f2f;
      }
      .cls-2 {
        fill: #acceeb;
      }
    </style>
  </defs>
  <title>01-en-counter</title>
  <path
    class="cls-1"
    d="M43.62,95.83A33.85,33.85,0,0,1,32,81.8a47.08,47.08,0,0,1-4-19.87A43.7,43.7,0,0,1,32.42,42,32.76,32.76,0,0,1,45.35,28.17a38.14,38.14,0,0,1,19.66-5,31.63,31.63,0,0,1,14,3.05,28.73,28.73,0,0,1,10.35,8.32q8.5,11.07,8.5,27.53a42.28,42.28,0,0,1-6.22,22.5q-10.05,16.46-32,16.46A27.67,27.67,0,0,1,43.62,95.83ZM38,60.25a54,54,0,0,0,1.62,12.84,42.24,42.24,0,0,0,4.7,11.76A23.2,23.2,0,0,0,52.35,93,20.54,20.54,0,0,0,63.1,96,25.11,25.11,0,0,0,73,94.18,21.88,21.88,0,0,0,84.25,82.72a42.94,42.94,0,0,0,3.68-18,56.4,56.4,0,0,0-2.81-18.16,30.64,30.64,0,0,0-8.8-13.56,20.92,20.92,0,0,0-14.24-5.24q-14.72,0-20.77,13.35Q38,48.7,38,60.25Z"
  />
  <path
    class="cls-2"
    d="M38,60.25a54,54,0,0,0,1.62,12.84,42.24,42.24,0,0,0,4.7,11.76A23.2,23.2,0,0,0,52.35,93,20.54,20.54,0,0,0,63.1,96,25.11,25.11,0,0,0,73,94.18,21.88,21.88,0,0,0,84.25,82.72a42.94,42.94,0,0,0,3.68-18,56.4,56.4,0,0,0-2.81-18.16,30.64,30.64,0,0,0-8.8-13.56,20.92,20.92,0,0,0-14.24-5.24q-14.72,0-20.77,13.35Q38,48.7,38,60.25Z"
  />
</svg>
