<svg
  id="Layer_1"
  data-name="Layer 1"
  xmlns="http://www.w3.org/2000/svg"
  viewBox="0 0 125 125"
>
  <defs>
    <style>
      .cls-1 {
        fill: #2f2f2f;
      }
      .cls-2 {
        fill: #acceeb;
      }
    </style>
  </defs>
  <title>02-en-arch</title>
  <path
    class="cls-1"
    d="M82.44,45.82c.13.43.24.87.35,1.32C82.69,46.69,82.57,46.25,82.44,45.82Z"
  />
  <path
    class="cls-1"
    d="M82.84,47.36q.16.74.28,1.53C83,48.36,83,47.85,82.84,47.36Z"
  />
  <polygon
    class="cls-1"
    points="50.57 45.93 51.16 38.03 50.45 37.19 34.59 38.98 34.17 42.1 43.45 44.43 43.45 84.47 34.29 86.5 33.81 89.61 59.36 89.61 59.96 86.14 51.23 84.47 51.23 49.52 51.05 45.93 50.57 45.93"
  />
  <path
    class="cls-1"
    d="M80.61,41.84c.13.19.24.39.35.59C80.84,42.23,80.73,42,80.61,41.84Z"
  />
  <path
    class="cls-1"
    d="M73.94,47.63q-.18-.32-.38-.62Q73.76,47.31,73.94,47.63Z"
  />
  <path
    class="cls-1"
    d="M81.33,43.06c.15.28.28.58.41.87C81.6,43.63,81.48,43.34,81.33,43.06Z"
  />
  <path
    class="cls-1"
    d="M81.94,44.39c.14.36.27.73.39,1.11C82.21,45.12,82.08,44.74,81.94,44.39Z"
  />
  <path class="cls-1" d="M75.43,52.42q-.07-.52-.16-1Q75.36,51.9,75.43,52.42Z" />
  <path class="cls-1" d="M83.14,49q.12.83.2,1.72Q83.27,49.83,83.14,49Z" />
  <path
    class="cls-1"
    d="M73.4,46.77a8.54,8.54,0,0,0-.6-.75A8.55,8.55,0,0,1,73.4,46.77Z"
  />
  <path
    class="cls-1"
    d="M74.5,48.76c-.12-.3-.26-.58-.4-.85C74.24,48.18,74.37,48.47,74.5,48.76Z"
  />
  <path class="cls-1" d="M75.18,51q-.09-.4-.19-.77Q75.1,50.61,75.18,51Z" />
  <path
    class="cls-1"
    d="M74.89,49.87c-.11-.35-.22-.69-.35-1C74.67,49.18,74.78,49.52,74.89,49.87Z"
  />
  <path
    class="cls-1"
    d="M83.48,84.47V53.71c0-1-.05-2-.14-3q.08.91.11,1.88h-8a24.23,24.23,0,0,1,.17,3V84.47l-8.38,2-.48,3.11H91.5l.42-3.47Z"
  />
  <path
    class="cls-2"
    d="M83.45,52.63q0-1-.11-1.88v0q-.08-.89-.2-1.72l0-.11q-.12-.79-.28-1.53l-.05-.21c-.1-.45-.22-.9-.35-1.32,0-.11-.07-.22-.11-.33-.12-.38-.25-.75-.39-1.11-.06-.16-.14-.3-.2-.46s-.26-.59-.41-.87-.24-.42-.37-.63-.23-.4-.35-.59a12.3,12.3,0,0,0-10.47-5.48,21.68,21.68,0,0,0-11,2.93A28.49,28.49,0,0,0,51,45.93l.18,3.59A25.3,25.3,0,0,1,58,44.4a17.56,17.56,0,0,1,7.57-1.53A9.27,9.27,0,0,1,72.8,46a8.54,8.54,0,0,1,.6.75l.17.25q.2.3.38.62l.15.28c.14.27.28.56.4.85l0,.09c.13.32.25.66.35,1,0,.12.07.24.1.37s.13.51.19.77.06.27.09.41q.09.49.16,1c0,.07,0,.14,0,.22h8Z"
  />
</svg>
