<svg
  id="Layer_1"
  data-name="Layer 1"
  xmlns="http://www.w3.org/2000/svg"
  viewBox="0 0 125 125"
>
  <defs>
    <style>
      .cls-1 {
        fill: #2f2f2f;
      }
      .cls-2 {
        fill: #acceeb;
      }
    </style>
  </defs>
  <title>03-en-serif</title>
  <path
    class="cls-1"
    d="M84,31.09a15.73,15.73,0,0,0-13-6.28,16.6,16.6,0,0,0-9.61,2.93,29,29,0,0,0-7.15,6.88H46.4V94.88l-9.1,1.8-.36,3.47h26l.6-3.65-9.34-1.56V38.21Q61.06,31.09,67,31.09q13.4,0,13.41,22.56,0,9.46-4,14.9A12.32,12.32,0,0,1,66.06,74a27.78,27.78,0,0,1-9.78-1.38l.3,5.75a34.77,34.77,0,0,0,6.1.66A24.43,24.43,0,0,0,81.5,71q7.39-8,7.39-20.83T84,31.09Z"
  />
  <polygon
    class="cls-2"
    points="54.3 26.42 53.52 25.58 37.66 27.26 37.18 30.43 46.4 32.7 46.4 34.62 53.76 34.62 54.3 26.42"
  />
</svg>
