<svg
  id="Layer_1"
  data-name="Layer 1"
  xmlns="http://www.w3.org/2000/svg"
  viewBox="0 0 125 125"
>
  <defs>
    <style>
      .cls-1 {
        fill: none;
      }
      .cls-2 {
        fill: #2f2f2f;
      }
      .cls-3 {
        fill: #acceeb;
      }
    </style>
  </defs>
  <title>05-en-outstroke</title>
  <path
    class="cls-1"
    d="M53.61,69.29a9.68,9.68,0,0,0-4.79,8.59,8.6,8.6,0,0,0,2.06,5.66A6.8,6.8,0,0,0,56.39,86,12.34,12.34,0,0,0,63,84a17.35,17.35,0,0,0,5.18-4.88V64.53Q58.4,66.21,53.61,69.29Z"
  />
  <path class="cls-2" d="M76,80l0,.17Z" />
  <path
    class="cls-2"
    d="M63,84a12.34,12.34,0,0,1-6.64,2,6.8,6.8,0,0,1-5.51-2.48,8.6,8.6,0,0,1-2.06-5.66,9.68,9.68,0,0,1,4.79-8.59q4.79-3.08,14.6-4.76V78.78h7.68c-.05-.7-.08-1.46-.08-2.28v-21q0-9.52-3.41-14T61.57,37.06a23.38,23.38,0,0,0-8.47,1.71,22.34,22.34,0,0,0-7.42,4.58q-3,2.87-3,5.92,0,5,6.58,5a71.83,71.83,0,0,1,1.53-8.23,7.81,7.81,0,0,1,1.89-3.38q1.26-1.26,4.61-1.26,6.16,0,8.56,4.37t2.39,12.81v2.87q-14.06,1.26-20.83,6.25T40.62,80.15a10.76,10.76,0,0,0,3.53,8.47,13.17,13.17,0,0,0,9.1,3.14,16.64,16.64,0,0,0,9.84-3,15.48,15.48,0,0,0,5.66-6.31h.48l-1-3.29A17.35,17.35,0,0,1,63,84Z"
  />
  <path class="cls-2" d="M76.52,82.24l.07.2Z" />
  <path class="cls-2" d="M76.26,81.33h0Z" />
  <path
    class="cls-3"
    d="M81.8,85.9q-3.77-.6-4.88-2.69a6.32,6.32,0,0,1-.33-.77l-.07-.2c-.1-.28-.18-.58-.26-.91h0c-.08-.35-.15-.72-.21-1.12L76,80c-.05-.4-.1-.81-.13-1.25H68.21v.36l1,3.29v.9A8.17,8.17,0,0,0,71.35,89a6.73,6.73,0,0,0,5.21,2.36,37.63,37.63,0,0,0,8.17-1.2l.54-3.59Z"
  />
</svg>
