<svg
  id="Layer_1"
  data-name="Layer 1"
  xmlns="http://www.w3.org/2000/svg"
  viewBox="0 0 125 125"
>
  <defs>
    <style>
      .cls-1 {
        fill: none;
      }
      .cls-2 {
        fill: #2f2f2f;
      }
      .cls-3 {
        fill: #acceeb;
      }
    </style>
  </defs>
  <title>06-en-ascender</title>
  <path
    class="cls-1"
    d="M66.32,53a16.3,16.3,0,0,0-7.57-2A12,12,0,0,0,48.34,56.8q-3.89,5.78-3.89,16T48.28,89a12.13,12.13,0,0,0,10.77,5.92,16,16,0,0,0,7.57-2.09,17.47,17.47,0,0,0,6-4.85V58.5A17.14,17.14,0,0,0,66.32,53Z"
  />
  <path
    class="cls-2"
    d="M86,95.31a11.71,11.71,0,0,1-3.41-1.2q-2.51-1.62-2.51-7.9v-37h-7v0H72.7a14.14,14.14,0,0,0-4.79-2,24.48,24.48,0,0,0-6.22-.87q-9.76,0-17.47,8.08a27.63,27.63,0,0,0-5.83,9.46A33.57,33.57,0,0,0,36.19,76q0,11.73,5.39,18.25a17,17,0,0,0,13.7,6.52q10.65,0,17.3-9.1h.6v.42a9.4,9.4,0,0,0,2.06,6.31A7.14,7.14,0,0,0,81,100.81a26.88,26.88,0,0,0,7.69-1.2L89.21,96ZM72.58,87.95a17.47,17.47,0,0,1-6,4.85,16,16,0,0,1-7.57,2.09A12.13,12.13,0,0,1,48.28,89Q44.45,83,44.45,72.81t3.89-16A12,12,0,0,1,58.75,51a16.3,16.3,0,0,1,7.57,2,17.14,17.14,0,0,1,6.25,5.51Z"
  />
  <polygon
    class="cls-2"
    points="80.12 49.22 80.12 24.57 79.22 23.55 80.07 24.62 80.12 49.22"
  />
  <polygon
    class="cls-3"
    points="80.12 49.22 80.07 24.62 79.22 23.55 63.78 24.87 63.24 28.04 72.34 30.61 72.34 41.33 73.12 49.17 73.13 49.22 80.12 49.22"
  />
</svg>
