<svg
  id="Layer_1"
  data-name="Layer 1"
  xmlns="http://www.w3.org/2000/svg"
  viewBox="0 0 125 125"
>
  <defs>
    <style>
      .cls-1 {
        fill: #2f2f2f;
      }
      .cls-2 {
        fill: #acceeb;
      }
    </style>
  </defs>
  <title>08-en-descender</title>
  <path
    class="cls-1"
    d="M83.58,30.9a15.73,15.73,0,0,0-13-6.28,16.6,16.6,0,0,0-9.61,2.93,29,29,0,0,0-7.15,6.88h-.42l.54-8.2-.78-.84L37.26,27.07l-.48,3.17L46,32.52V72.84h7.78V38q6.88-7.12,12.81-7.12Q80,30.9,80,53.47q0,9.46-4,14.9a12.32,12.32,0,0,1-10.29,5.45,27.77,27.77,0,0,1-9.78-1.38l.3,5.75a34.77,34.77,0,0,0,6.1.66,24.43,24.43,0,0,0,18.82-8q7.39-8,7.39-20.83T83.58,30.9Z"
  />
  <polygon
    class="cls-2"
    points="46 94.7 36.9 96.5 36.54 99.97 62.52 99.97 63.11 96.31 53.78 94.76 53.78 72.84 46 72.84 46 94.7"
  />
</svg>
