<svg
  id="Layer_1"
  data-name="Layer 1"
  xmlns="http://www.w3.org/2000/svg"
  viewBox="0 0 125 125"
>
  <defs>
    <style>
      .cls-1 {
        fill: none;
      }
      .cls-2 {
        fill: #2f2f2f;
      }
      .cls-3 {
        fill: #acceeb;
      }
    </style>
  </defs>
  <title>09-en-bowl</title>
  <path
    class="cls-1"
    d="M53,76.16A8.6,8.6,0,0,0,55,81.81a6.8,6.8,0,0,0,5.51,2.48,12.34,12.34,0,0,0,6.64-2,17.35,17.35,0,0,0,5.18-4.88V62.81q-9.82,1.68-14.6,4.76A9.68,9.68,0,0,0,53,76.16Z"
  />
  <path
    class="cls-2"
    d="M85.95,84.18q-3.77-.6-4.88-2.69T80,74.78v-21q0-9.52-3.41-14T65.72,35.34A23.38,23.38,0,0,0,57.25,37a22.34,22.34,0,0,0-7.42,4.58q-3,2.87-3,5.92,0,5,6.58,5a71.8,71.8,0,0,1,1.53-8.23A7.81,7.81,0,0,1,56.8,41q1.26-1.26,4.61-1.26,6.16,0,8.56,4.37t2.39,12.81V77.41l.54,3.29h.48v.9a8.17,8.17,0,0,0,2.12,5.66,6.73,6.73,0,0,0,5.21,2.36,37.63,37.63,0,0,0,8.17-1.2l.54-3.59Z"
  />
  <path
    class="cls-3"
    d="M67.19,82.29a12.34,12.34,0,0,1-6.64,2A6.8,6.8,0,0,1,55,81.81,8.6,8.6,0,0,1,53,76.16a9.68,9.68,0,0,1,4.79-8.59q4.79-3.08,14.6-4.76V59.76Q58.3,61,51.54,66T44.77,78.43A10.76,10.76,0,0,0,48.3,86.9,13.17,13.17,0,0,0,57.4,90a16.64,16.64,0,0,0,9.84-3A15.48,15.48,0,0,0,72.9,80.7l-.54-3.29A17.35,17.35,0,0,1,67.19,82.29Z"
  />
</svg>
