<svg
  id="Layer_1"
  data-name="Layer 1"
  xmlns="http://www.w3.org/2000/svg"
  viewBox="0 0 125 125"
>
  <defs>
    <style>
      .cls-1 {
        fill: #2f2f2f;
      }
      .cls-2 {
        fill: #acceeb;
      }
    </style>
  </defs>
  <title>10-en-beak</title>
  <path class="cls-1" d="M63.27,38.85l-.12,0Z" />
  <path class="cls-1" d="M67.83,42l-.24-.31Z" />
  <path
    class="cls-1"
    d="M78.3,69.76q-2.21-4.07-8.74-8.32L64,58q-6.52-3.89-8.74-7.24a8.9,8.9,0,0,1-1.44-5.06,6.63,6.63,0,0,1,2.15-5,8,8,0,0,1,5.81-2.06c.24,0,.48,0,.72,0V34.93c.51,0,1-.06,1.56-.06q-8.26,0-12.42,4.73a15.74,15.74,0,0,0-4.16,10.68,12.48,12.48,0,0,0,4.4,9.81,69.79,69.79,0,0,0,10.86,7.63q2.69,1.62,4.94,3.2a15.21,15.21,0,0,1,3.62,3.5A7.59,7.59,0,0,1,72.67,79a5.92,5.92,0,0,1-2.51,4.67,10.64,10.64,0,0,1-6.88,2q-8.86,0-11.67-13.41a7.34,7.34,0,0,0-4.55,2.09,6.09,6.09,0,0,0-1.8,4.49q0,4.91,4.7,8.11t11.88,3.2A19.86,19.86,0,0,0,74.38,86a12.89,12.89,0,0,0,5.36-10.62A11.57,11.57,0,0,0,78.3,69.76Z"
  />
  <path class="cls-1" d="M67.27,41.32,67,41.06Z" />
  <path class="cls-1" d="M66.05,40.16,65.83,40Z" />
  <path class="cls-1" d="M64,39.05,63.84,39Z" />
  <path class="cls-1" d="M65.4,39.71l-.22-.12Z" />
  <path class="cls-1" d="M64.72,39.34l-.2-.09Z" />
  <path class="cls-1" d="M71.06,50q-.16-.69-.33-1.33Q70.9,49.32,71.06,50Z" />
  <path
    class="cls-1"
    d="M69.79,45.76c-.07-.19-.15-.39-.23-.57C69.64,45.37,69.71,45.57,69.79,45.76Z"
  />
  <path
    class="cls-1"
    d="M70.21,46.94c-.07-.23-.15-.45-.23-.67C70.06,46.48,70.13,46.71,70.21,46.94Z"
  />
  <path class="cls-1" d="M66.44,40.49l.23.21Z" />
  <path
    class="cls-1"
    d="M70.61,48.25c-.08-.28-.15-.55-.24-.82C70.45,47.69,70.53,48,70.61,48.25Z"
  />
  <path class="cls-1" d="M69.34,44.69l-.23-.5Z" />
  <path class="cls-1" d="M68.37,42.83l-.23-.37Z" />
  <path class="cls-1" d="M68.87,43.72l-.23-.43Z" />
  <path
    class="cls-2"
    d="M62.5,38.74h0c.22,0,.44.06.65.1l.12,0c.19,0,.38.09.57.15l.17.05.51.2.2.09.46.24.22.12.43.29.23.17.39.33.23.21.36.36.23.26.33.4.24.31.3.43.23.37.27.46.23.43.25.48.23.5.22.5c.08.18.15.38.23.57s.13.33.19.51.15.44.23.67.11.32.16.49.16.54.24.82l.12.43q.17.65.33,1.33l.48,2.33q6.28-.54,6.28-7.6,0-3.89-3.95-6.88a15.79,15.79,0,0,0-9.81-3c-.54,0-1,0-1.56.06Z"
  />
</svg>
