<svg
  id="Layer_1"
  data-name="Layer 1"
  xmlns="http://www.w3.org/2000/svg"
  viewBox="0 0 125 125"
>
  <defs>
    <style>
      .cls-1 {
        fill: none;
      }
      .cls-2 {
        fill: #2f2f2f;
      }
      .cls-3 {
        fill: #acceeb;
      }
    </style>
  </defs>
  <title>11-en-finial</title>
  <path
    class="cls-1"
    d="M72.42,50.8a12.15,12.15,0,0,0-2.54-7.75,8.65,8.65,0,0,0-7.21-3.23q-4.67,0-8,4.7T51,57.89l21-1.38A23,23,0,0,0,72.42,50.8Z"
  />
  <path
    class="cls-2"
    d="M80.74,83.77c-.5.48-1,.93-1.56,1.35C79.72,84.69,80.24,84.25,80.74,83.77Z"
  />
  <path class="cls-2" d="M79,85.29q-.81.63-1.67,1.17Q78.15,85.92,79,85.29Z" />
  <path
    class="cls-2"
    d="M77.09,86.58c-.6.37-1.21.71-1.84,1C75.88,87.29,76.49,87,77.09,86.58Z"
  />
  <path
    class="cls-2"
    d="M82.41,82c-.48.56-1,1.09-1.51,1.59C81.43,83.1,81.93,82.57,82.41,82Z"
  />
  <path
    class="cls-2"
    d="M66.1,83.5A13.25,13.25,0,0,1,55.27,77a29.62,29.62,0,0,1-4.4-15.44l29-.36a31.34,31.34,0,0,0,1-7.84q0-9.1-4-13.64T65.9,35.21q-9,0-16,7.18a24.85,24.85,0,0,0-5.39,8.83,33.52,33.52,0,0,0-2,11.88q0,13.23,6.34,20.08A19.93,19.93,0,0,0,63.92,90a25.5,25.5,0,0,0,11.25-2.39,24.54,24.54,0,0,1-9.08,2.31Zm-11.48-39q3.38-4.7,8-4.7a8.65,8.65,0,0,1,7.21,3.23,12.15,12.15,0,0,1,2.54,7.75A23,23,0,0,1,72,56.52L51,57.89Q51.23,49.22,54.62,44.52Z"
  />
  <path
    class="cls-3"
    d="M81.28,79.38a24.33,24.33,0,0,1-14,4.19c-.4,0-.79,0-1.18-.06h0v6.45a24.54,24.54,0,0,0,9.08-2.31l.08,0c.63-.31,1.25-.65,1.84-1l.2-.12q.86-.54,1.67-1.17l.22-.18c.53-.42,1.06-.87,1.56-1.35l.17-.16c.52-.5,1-1,1.51-1.59Z"
  />
</svg>
