<svg
  id="Layer_1"
  data-name="Layer 1"
  xmlns="http://www.w3.org/2000/svg"
  viewBox="0 0 1500 400"
>
  <defs>
    <style>
      .c_line {
        fill: none;
        stroke-miterlimit: 10;
        stroke-width: 1.75px;
      }
      .c_guide {
        stroke: #e3e3e3;
      }
      .c_guide--offset {
        stroke-dasharray: 10.52 7.51;
      }

      .c_subj {
        fill: #2f2f2f;
      }
      .c_subj--highlight {
        fill: #acceeb;
      }

      .c_ano--line {
        stroke: #414141;
      }
      .c_ano--arrow {
        fill: #414141;
      }
      .c_ano--text {
        fill: #414141;
        font-size: 20px;
        font-family: WorkSans-Regular, Work Sans, sans-serif;
        letter-spacing: 0.03em;
      }
    </style>
  </defs>
  <title>Type Anatomy</title>

  <!-- HORIZONTAL LINES -->
  <line class="c_line c_guide" x1="218.85" y1="141.59" x2="224.13" y2="141.59" />
  <line class="c_line c_guide c_guide--offset" x1="231.64" y1="141.59" x2="1381.76" y2="141.59" />
  <line class="c_line c_guide" x1="1385.51" y1="141.59" x2="1390.8" y2="141.59" />
  <line class="c_line c_guide" x1="218.85" y1="174.42" x2="224.13" y2="174.42" />
  <line class="c_line c_guide c_guide--offset" x1="231.64" y1="174.42" x2="1381.76" y2="174.42" />
  <line class="c_line c_guide" x1="1385.51" y1="174.42" x2="1390.8" y2="174.42" />
  <line class="c_line c_guide" x1="218.85" y1="255.03" x2="224.13" y2="255.03" />
  <line class="c_line c_line--horo c_guide--offset" x1="231.64" y1="255.03" x2="1381.76" y2="255.03" />
  <line class="c_line c_line--horo" x1="1385.51" y1="255.03" x2="1390.8" y2="255.03" />
  
  <!-- SUBJECT -->
  <path
    class="c_subj"
    d="M 255.3 245.3 a 48.4 48.4 0 0 1 -16.6 -20 a 67.3 67.3 0 0 1 -5.8 -28.4 a 62.4 62.4 0 0 1 6.4 -28.5 a 46.8 46.8 0 0 1 18.5 -19.8 q 12.1 -7.1 28.1 -7.1 a 45.2 45.2 0 0 1 20 4.4 a 41 41 0 0 1 14.8 11.9 q 12.1 15.8 12.1 39.3 a 60.4 60.4 0 0 1 -8.9 32.1 q -14.4 23.5 -45.7 23.5 A 39.5 39.5 0 0 1 255.3 245.3 Z m -8.1 -50.8 a 77.1 77.1 0 0 0 2.3 18.3 a 60.4 60.4 0 0 0 6.7 16.8 a 33.1 33.1 0 0 0 11.5 11.6 a 29.4 29.4 0 0 0 15.3 4.3 A 35.9 35.9 0 0 0 297.3 243 q 10.8 -4.8 16 -16.4 A 61.3 61.3 0 0 0 318.6 201 a 80.6 80.6 0 0 0 -4 -25.9 A 43.8 43.8 0 0 0 302 155.7 a 29.9 29.9 0 0 0 -20.4 -7.5 q -21 0 -29.7 19.1 Q 247.2 178 247.2 194.5 Z"
  />
  <path
    class="c_subj"
    d="M 341.7 250.5 l 0.7 -4.5 l 13.1 -2.9 V 186 l -13.3 -3.3 l 0.6 -4.5 l 22.7 -2.6 l 1 1.2 l -0.8 11.3 h 0.7 a 40.7 40.7 0 0 1 11.5 -9.5 a 31 31 0 0 1 15.7 -4.2 a 17.2 17.2 0 0 1 13.8 6.2 q 5.3 6.2 5.3 18.6 v 43.9 l 12.1 2.4 l -0.6 5 H 388.8 l 0.7 -4.5 l 12 -2.9 V 201.9 q 0 -9.2 -4.1 -13.7 a 13.2 13.2 0 0 0 -10.3 -4.5 a 25.1 25.1 0 0 0 -10.8 2.2 a 36.1 36.1 0 0 0 -9.8 7.3 v 49.9 l 12.5 2.4 l -0.8 5 Z"
  />
  <path
    class="c_subj"
    d="M 485.7 241.6 q -9.8 11.5 -26.4 11.5 q -12.6 0 -21.6 -9.8 t -9.1 -28.7 a 47.9 47.9 0 0 1 2.9 -17 A 35.5 35.5 0 0 1 439.1 185 q 10.1 -10.3 22.9 -10.3 q 9.8 0 15.6 6.5 t 5.8 19.5 a 44.8 44.8 0 0 1 -1.4 11.2 l -41.4 0.5 q 0.3 12.7 6.3 22.1 T 464 243.8 a 34.8 34.8 0 0 0 20 -6 Z m -44.9 -34.5 l 30 -2 q 0.6 -1.7 0.6 -8.2 A 17.4 17.4 0 0 0 467.8 186 q -3.6 -4.6 -10.3 -4.6 t -11.5 6.7 Q 441.1 194.8 440.8 207.2 Z"
  />
  <path
    class="c_subj"
    d="M 568.5 183.7 q -8.5 0 -18.3 10.2 v 81 l 13.3 2.2 l -0.8 5.2 h -37.1 l 0.5 -5 l 13 -2.6 V 186 l -13.2 -3.3 l 0.7 -4.5 l 22.7 -2.4 l 1.1 1.2 l -0.8 11.7 h 0.6 a 41.5 41.5 0 0 1 10.2 -9.8 a 23.7 23.7 0 0 1 13.7 -4.2 a 22.5 22.5 0 0 1 18.6 9 q 7 9 7 27.2 t -10.6 29.8 q -10.6 11.5 -26.9 11.5 a 49.7 49.7 0 0 1 -8.7 -0.9 l -0.4 -8.2 q 5 2 14 2 t 14.7 -7.8 q 5.8 -7.8 5.8 -21.3 Q 587.6 183.7 568.5 183.7 Z"
  />
  <path
    class="c_subj"
    d="M 608.6 236.1 q 0 -10.6 9.7 -17.7 T 648 209.4 v -4.1 q 0 -12.1 -3.4 -18.3 t -12.2 -6.2 q -4.8 0 -6.6 1.8 a 11.2 11.2 0 0 0 -2.7 4.8 a 102.6 102.6 0 0 0 -2.2 11.8 q -9.4 0 -9.4 -7.2 q 0 -4.4 4.3 -8.5 a 31.9 31.9 0 0 1 10.6 -6.5 a 33.4 33.4 0 0 1 12.1 -2.4 q 10.6 0 15.5 6.4 t 4.9 20 v 30 q 0 6.6 1.6 9.6 t 7 3.9 l 5 0.9 l -0.8 5.1 A 53.8 53.8 0 0 1 660 252 a 9.6 9.6 0 0 1 -7.4 -3.4 a 11.7 11.7 0 0 1 -3 -8.1 v -1.3 h -0.7 q -2 4.7 -8.1 9 a 23.8 23.8 0 0 1 -14.1 4.3 q -8 0 -13 -4.5 T 608.6 236.1 Z m 11.7 -3.3 a 12.3 12.3 0 0 0 3 8.1 a 9.7 9.7 0 0 0 7.9 3.5 a 17.6 17.6 0 0 0 9.5 -2.9 a 24.8 24.8 0 0 0 7.4 -7 V 213.7 q -14 2.4 -20.9 6.8 A 13.8 13.8 0 0 0 620.3 232.8 Z"
  />
  <path
    class="c_subj"
    d="M 679.9 250.5 l 0.7 -4.5 l 13.1 -2.9 V 186 l -13.3 -3.3 l 0.6 -4.5 l 22.7 -2.6 l 1 1.2 l -0.8 11.3 h 0.7 A 40.7 40.7 0 0 1 716 178.6 a 31 31 0 0 1 15.7 -4.2 a 17.2 17.2 0 0 1 13.8 6.2 q 5.3 6.2 5.3 18.6 v 43.9 l 12.1 2.4 l -0.6 5 H 727 l 0.7 -4.5 l 12 -2.9 V 201.9 q 0 -9.2 -4.1 -13.7 a 13.2 13.2 0 0 0 -10.3 -4.5 a 25.1 25.1 0 0 0 -10.8 2.2 a 36.1 36.1 0 0 0 -9.8 7.3 v 49.9 l 12.5 2.4 l -0.8 5 Z"
  />
  <path
    class="c_subj"
    d="M 767 216.9 a 48 48 0 0 1 3.1 -17.4 A 39.5 39.5 0 0 1 778.4 186 q 11 -11.5 25 -11.5 a 35 35 0 0 1 8.9 1.2 a 20.2 20.2 0 0 1 6.8 2.9 h 0.7 l -1.2 -11.2 V 152.1 l -13 -3.7 l 0.8 -4.5 L 828.4 142 l 1.3 1.4 v 88.1 q 0 9 3.6 11.3 a 16.7 16.7 0 0 0 4.9 1.7 l 4.5 1 l -0.8 5.1 a 38.4 38.4 0 0 1 -11 1.7 a 10.2 10.2 0 0 1 -8.2 -3.5 a 13.4 13.4 0 0 1 -3 -9 v -0.6 h -0.8 q -9.5 13 -24.7 13 A 24.3 24.3 0 0 1 774.6 243 Q 767 233.7 767 216.9 Z m 17.4 -27.4 q -5.6 8.3 -5.6 22.9 t 5.5 23.1 a 17.3 17.3 0 0 0 15.4 8.5 a 22.9 22.9 0 0 0 10.8 -3 a 25 25 0 0 0 8.5 -6.9 V 191.9 a 24.5 24.5 0 0 0 -8.9 -7.9 a 23.3 23.3 0 0 0 -10.8 -2.8 Q 789.9 181.3 784.3 189.5 Z"
  />
  <path
    class="c_subj"
    d="M 850.4 236.1 q 0 -10.6 9.7 -17.7 t 29.8 -8.9 v -4.1 q 0 -12.1 -3.4 -18.3 t -12.2 -6.2 q -4.8 0 -6.6 1.8 a 11.2 11.2 0 0 0 -2.7 4.8 a 102.6 102.6 0 0 0 -2.2 11.8 q -9.4 0 -9.4 -7.2 q 0 -4.4 4.3 -8.5 a 31.9 31.9 0 0 1 10.6 -6.5 a 33.4 33.4 0 0 1 12.1 -2.4 q 10.6 0 15.5 6.4 t 4.9 20 v 30 q 0 6.6 1.6 9.6 t 7 3.9 l 5 0.9 l -0.8 5.1 A 53.8 53.8 0 0 1 901.7 252 a 9.6 9.6 0 0 1 -7.4 -3.4 a 11.7 11.7 0 0 1 -3 -8.1 v -1.3 h -0.7 q -2 4.7 -8.1 9 a 23.8 23.8 0 0 1 -14.1 4.3 q -8 0 -13 -4.5 T 850.4 236.1 Z m 11.7 -3.3 a 12.3 12.3 0 0 0 3 8.1 a 9.7 9.7 0 0 0 7.9 3.5 a 17.6 17.6 0 0 0 9.5 -2.9 a 24.8 24.8 0 0 0 7.4 -7 V 213.7 q -14 2.4 -20.9 6.8 A 13.8 13.8 0 0 0 862.1 232.8 Z"
  />
  <path
    class="c_subj"
    d="M 993.4 183.7 q -8.5 0 -18.3 10.2 v 81 l 13.3 2.2 l -0.8 5.2 h -37.1 l 0.5 -5 l 13 -2.6 V 186 l -13.2 -3.3 l 0.7 -4.5 l 22.7 -2.4 l 1.1 1.2 l -0.8 11.7 h 0.6 a 41.5 41.5 0 0 1 10.2 -9.8 A 23.7 23.7 0 0 1 999 174.8 a 22.5 22.5 0 0 1 18.6 9 q 7 9 7 27.2 t -10.6 29.8 q -10.6 11.5 -26.9 11.5 a 49.7 49.7 0 0 1 -8.7 -0.9 l -0.4 -8.2 q 5 2 14 2 t 14.7 -7.8 q 5.8 -7.8 5.8 -21.3 Q 1012.5 183.7 993.4 183.7 Z"
  />
  <path
    class="c_subj"
    d="M 1028 250.5 l 0.8 -4.7 l 13.2 -2.7 V 151.7 l -13.3 -3.5 l 0.5 -4.5 l 22.4 -1.8 l 1.4 1.4 v 99.8 l 13.8 2.6 l -1 4.9 Z"
  />
  <path
    class="c_subj"
    d="M 1127.8 241.6 q -9.8 11.5 -26.4 11.5 q -12.6 0 -21.6 -9.8 t -9.1 -28.7 a 47.9 47.9 0 0 1 2.9 -17 A 35.5 35.5 0 0 1 1081.3 185 q 10.1 -10.3 22.9 -10.3 q 9.8 0 15.6 6.5 t 5.8 19.5 a 44.8 44.8 0 0 1 -1.4 11.2 l -41.4 0.5 q 0.3 12.7 6.3 22.1 t 17.1 9.3 a 34.8 34.8 0 0 0 20 -6 Z m -44.9 -34.5 l 30 -2 q 0.6 -1.7 0.6 -8.2 A 17.4 17.4 0 0 0 1109.9 186 q -3.6 -4.6 -10.3 -4.6 t -11.5 6.7 Q 1083.3 194.8 1082.9 207.2 Z"
  />
  <path
    class="c_subj"
    d="M 1137.5 236.1 q 0 -10.6 9.7 -17.7 t 29.8 -8.9 v -4.1 q 0 -12.1 -3.4 -18.3 t -12.2 -6.2 q -4.8 0 -6.6 1.8 a 11.2 11.2 0 0 0 -2.7 4.8 a 102.6 102.6 0 0 0 -2.2 11.8 q -9.4 0 -9.4 -7.2 q 0 -4.4 4.3 -8.5 a 31.9 31.9 0 0 1 10.6 -6.5 a 33.4 33.4 0 0 1 12.1 -2.4 q 10.6 0 15.5 6.4 t 4.9 20 v 30 q 0 6.6 1.6 9.6 t 7 3.9 l 5 0.9 l -0.8 5.1 a 53.8 53.8 0 0 1 -11.7 1.7 a 9.6 9.6 0 0 1 -7.4 -3.4 a 11.7 11.7 0 0 1 -3 -8.1 v -1.3 h -0.7 q -2 4.7 -8.1 9 a 23.8 23.8 0 0 1 -14.1 4.3 q -8 0 -13 -4.5 T 1137.5 236.1 Z m 11.7 -3.3 a 12.3 12.3 0 0 0 3 8.1 a 9.7 9.7 0 0 0 7.9 3.5 a 17.6 17.6 0 0 0 9.5 -2.9 a 24.8 24.8 0 0 0 7.4 -7 V 213.7 q -14 2.4 -20.9 6.8 A 13.8 13.8 0 0 0 1149.2 232.8 Z"
  />
  <path
    class="c_subj--highlight"
    d="M 1176.9 213.7 q -14 2.4 -20.9 6.8 a 13.8 13.8 0 0 0 -6.8 12.3 a 12.3 12.3 0 0 0 3 8.1 a 9.7 9.7 0 0 0 7.9 3.5 a 17.6 17.6 0 0 0 9.5 -2.9 a 24.8 24.8 0 0 0 7.4 -7 l 0.8 4.7 q -2 4.7 -8.1 9 a 23.8 23.8 0 0 1 -14.1 4.3 q -8 0 -13 -4.5 t -5 -12.1 q 0 -10.6 9.7 -17.7 t 29.8 -8.9 Z"
  />
  <path
    class="c_subj"
    d="M 1217.2 227.9 q 4 19.1 16.7 19.1 q 6.2 0 9.8 -2.9 t 3.6 -6.7 a 10.8 10.8 0 0 0 -2 -6.5 a 21.7 21.7 0 0 0 -5.2 -5 q -3.2 -2.3 -7 -4.6 a 99.7 99.7 0 0 1 -15.5 -10.9 a 17.8 17.8 0 0 1 -6.3 -14 a 22.5 22.5 0 0 1 5.9 -15.3 q 5.9 -6.8 17.7 -6.8 q 8.4 0 14 4.3 t 5.6 9.8 q 0 10.1 -9 10.9 l -0.7 -3.3 Q 1241.3 180 1231.7 180 a 11.5 11.5 0 0 0 -8.3 3 a 9.5 9.5 0 0 0 -3.1 7.1 a 12.7 12.7 0 0 0 2 7.2 q 3.2 4.8 12.5 10.3 l 8 4.9 q 9.3 6.1 12.5 11.9 a 16.5 16.5 0 0 1 2 8 a 18.4 18.4 0 0 1 -7.7 15.2 a 28.4 28.4 0 0 1 -17.9 5.9 q -10.3 0 -17 -4.6 t -6.7 -11.6 a 8.7 8.7 0 0 1 2.6 -6.4 A 10.5 10.5 0 0 1 1217.2 227.9 Z"
  />
  <path
    class="c_subj"
    d="M 1323.4 241.6 q -9.8 11.5 -26.4 11.5 q -12.6 0 -21.6 -9.8 t -9.1 -28.7 a 47.9 47.9 0 0 1 2.9 -17 a 35.5 35.5 0 0 1 7.7 -12.6 q 10.1 -10.3 22.9 -10.3 q 9.8 0 15.6 6.5 t 5.8 19.5 a 44.8 44.8 0 0 1 -1.4 11.2 l -41.4 0.5 q 0.3 12.7 6.3 22.1 t 17.1 9.3 a 34.8 34.8 0 0 0 20 -6 Z m -44.9 -34.5 l 30 -2 q 0.6 -1.7 0.6 -8.2 a 17.4 17.4 0 0 0 -3.6 -11.1 q -3.6 -4.6 -10.3 -4.6 t -11.5 6.7 Q 1278.8 194.8 1278.5 207.2 Z"
  />
  <path
    class="c_subj--highlight"
    d="M 247.2 194.5 a 77.1 77.1 0 0 0 2.3 18.3 a 60.4 60.4 0 0 0 6.7 16.8 a 33.1 33.1 0 0 0 11.5 11.6 a 29.4 29.4 0 0 0 15.3 4.3 A 35.9 35.9 0 0 0 297.3 243 q 10.8 -4.8 16 -16.4 A 61.3 61.3 0 0 0 318.6 201 a 80.6 80.6 0 0 0 -4 -25.9 A 43.8 43.8 0 0 0 302 155.7 a 29.9 29.9 0 0 0 -20.4 -7.5 q -21 0 -29.7 19.1 Q 247.2 178 247.2 194.5 Z"
  />
  <path
    class="c_subj--highlight"
    d="M 397.4 188.2 q 3.1 3.4 3.8 9.4 h 11.4 c -0.2 -7.4 -2 -13.1 -5.3 -17 a 17.2 17.2 0 0 0 -13.8 -6.2 a 31 31 0 0 0 -15.7 4.2 a 40.7 40.7 0 0 0 -11.5 9.5 l 0.3 5.1 a 36.1 36.1 0 0 1 9.8 -7.3 a 25.1 25.1 0 0 1 10.8 -2.2 A 13.2 13.2 0 0 1 397.4 188.2 Z"
  />
  <polygon
    class="c_subj--highlight"
    points="542.9,279.8 542.9,268.4 539.1,268.4 539.1,274.9 526.1,277.4 525.9,279.8 542.9,279.8"
  />
  <polygon
    class="c_subj--highlight"
    points="539.1,188.8 549.6,188.8 550.4,177.1 549.3,175.9 526.6,178.3 525.9,182.8 539.1,186 539.1,188.8"
  />
  <path
    class="c_subj--highlight"
    d="M 660.5 240.4 a 16.5 16.5 0 0 1 -1.5 -6.3 H 648 v 0.5 l 1.4 4.7 v 1.3 a 11.7 11.7 0 0 0 3 8.1 a 9.6 9.6 0 0 0 7.4 3.4 a 53.8 53.8 0 0 0 11.7 -1.7 l 0.8 -5.1 l -5 -0.9 Q 662 243.4 660.5 240.4 Z"
  />
  <polygon
    class="c_subj--highlight"
    points="818.6,167.4 819.7,178.7 829.7,178.7 829.6,143.5 828.4,142 806.4,143.9 805.6,148.4 818.6,152.1 818.6,167.4"
  />
  <polygon
    class="c_subj--highlight"
    points="975.1,243.7 964,243.7 964,274.9 951,277.4 950.5,282.4 987.6,282.4 988.4,277.2 975.1,275 975.1,243.7"
  />
  <rect class="c_subj--highlight" x="1042.1" y="161.1" width="11" height="70.9" />
  <path
    class="c_subj--highlight"
    d="M 1321.8 237.8 a 34.8 34.8 0 0 1 -20 6 c -0.6 0 -1.1 -0.1 -1.7 -0.1 V 253 q 14.4 -1 23.3 -11.3 Z"
  />
  <path
    class="c_subj--highlight"
    d="M 1232.8 180 q 8.8 0.8 12.2 16.1 l 0.7 3.3 q 9 -0.8 9 -10.9 q 0 -5.6 -5.6 -9.8 t -14 -4.3 c -0.8 0 -1.5 0 -2.2 0.1 Z"
  />

  <!-- ANNOTATIONS -->
  <text class="c_ano--text" transform="translate(44.5,148.2)">
    CAPLINE
  </text>
  <text class="c_ano--text" transform="translate(225.9,88)">
    COUNTER
  </text>
  <text class="c_ano--text" transform="translate(357.6,88)">
    ARCH
  </text>
  <text class="c_ano--text" transform="matrix(1,0,0,1,508.7,88)">
    SERIF
  </text>
  <text class="c_ano--text" transform="translate(756.6,88)">
    ASCENDER
  </text>
  <text class="c_ano--text" transform="translate(978,88)">
    STEM
  </text>
  <text class="c_ano--text" transform="matrix(1,0,0,1,278,279.8)">
    SERIF BRACKET
  </text>
  <text class="c_ano--text" transform="translate(588.6,344.5)">
    OUTSTROKE
  </text>
  <text class="c_ano--text" transform="translate(44.5,179.2)">
    MEANLINE
  </text>
  <text class="c_ano--text" transform="translate(44.5,262.7)">
    BASELINE
  </text>
  <text class="c_ano--text" transform="translate(1332.7,221.1)">
    X-HEIGHT
  </text>
  <text class="c_ano--text" transform="translate(1213.3,88)">
    BEAK
  </text>
  <text class="c_ano--text" transform="translate(896.6,344.5)">
    DESCENDER
  </text>
  <text class="c_ano--text" transform="translate(1123.8,344.5)">
    BOWL
  </text>
  <text class="c_ano--text" transform="translate(1272.6,344.5)">
    FINIAL
  </text>
  <polyline
    class="c_line c_ano--line"
    points="1009.5,100.5 1009.5,150.3 1026.8,167.6"
  />
  <polygon
    class="c_ano--arrow"
    points="1017.4,168.6 1017.4,166.8 1026.3,167.1 1026,158.2 1027.8,158.2 1028.2,169 1017.4,168.6"
  />
  <line class="c_line c_ano--line" x1="282.92" y1="100.53" x2="282.92" y2="129.66" />
  <polygon
    class="c_ano--arrow"
    points="275.5,123.7 276.8,122.4 282.9,129 289,122.4 290.3,123.7 282.9,131.6 275.5,123.7"
  />
  <line class="c_line c_ano--line" x1="389.46" y1="100.53" x2="389.46" y2="160.6" />
  <polygon
    class="c_ano--arrow"
    points="382.1,154.6 383.4,153.4 389.5,159.9 395.5,153.4 396.9,154.6 389.5,162.6 382.1,154.6"
  />
  <line class="c_line c_ano--line" x1="542.93" y1="100.53" x2="542.93" y2="160.6" />
  <polygon
    class="c_ano--arrow"
    points="535.5,154.6 536.9,153.4 542.9,159.9 549,153.4 550.3,154.6 542.9,162.6 535.5,154.6"
  />
  <line class="c_line c_ano--line" x1="820.84" y1="100.53" x2="820.84" y2="124.58" />
  <polygon
    class="c_ano--arrow"
    points="813.4,118.6 814.8,117.3 820.8,123.9 826.9,117.3 828.3,118.6 820.8,126.5 813.4,118.6"
  />
  <line class="c_line c_ano--line" x1="1243.7" y1="100.53" x2="1243.7" y2="159.17" />
  <polygon
    class="c_ano--arrow"
    points="1236.3,153.2 1237.6,151.9 1243.7,158.5 1249.8,151.9 1251.1,153.2 1243.7,161.1 1236.3,153.2"
  />
  <line class="c_line c_ano--line" x1="660.2" y1="315.31" x2="660.2" y2="270.33" />
  <polygon
    class="c_ano--arrow"
    points="667.6,276.3 666.3,277.6 660.2,271 654.1,277.6 652.8,276.3 660.2,268.4 667.6,276.3"
  />
  <line class="c_line c_ano--line" x1="969.46" y1="315.31" x2="969.46" y2="300.96" />
  <polygon
    class="c_ano--arrow"
    points="976.9,307 975.5,308.2 969.5,301.6 963.4,308.2 962,307 969.5,299 976.9,307"
  />
  <line class="c_line c_ano--line" x1="1157.57" y1="315.31" x2="1157.57" y2="272.28" />
  <polygon
    class="c_ano--arrow"
    points="1165,278.3 1163.7,279.5 1157.6,273 1151.5,279.5 1150.2,278.3 1157.6,270.3 1165,278.3"
  />
  <line class="c_line c_ano--line" x1="1311.74" y1="315.31" x2="1311.74" y2="272.28" />
  <polygon
    class="c_ano--arrow"
    points="1319.1,278.3 1317.8,279.5 1311.7,273 1305.7,279.5 1304.3,278.3 1311.7,270.3 1319.1,278.3"
  />
  <line class="c_line c_ano--line" x1="1390.8" y1="199.47" x2="1390.8" y2="183.85" />
  <polygon
    class="c_ano--arrow"
    points="1398.2,189.8 1396.9,191.1 1390.8,184.6 1384.7,191.1 1383.4,189.8 1390.8,181.9 1398.2,189.8"
  />
  <line class="c_line c_ano--line" x1="1390.8" y1="229.06" x2="1390.8" y2="244.68" />
  <polygon
    class="c_ano--arrow"
    points="1383.4,238.7 1384.7,237.4 1390.8,244 1396.9,237.4 1398.2,238.7 1390.8,246.6 1383.4,238.7"
  />
  <line class="c_line c_ano--line" x1="159.72" y1="141.59" x2="202.28" y2="141.59" />
  <polygon
    class="c_ano--arrow"
    points="196.3,149 195.1,147.7 201.6,141.6 195.1,135.5 196.3,134.2 204.3,141.6 196.3,149"
  />
  <line class="c_line c_ano--line" x1="172.55" y1="173.25" x2="202.28" y2="173.25" />
  <polygon
    class="c_ano--arrow"
    points="196.3,180.7 195.1,179.3 201.6,173.3 195.1,167.2 196.3,165.8 204.3,173.3 196.3,180.7"
  />
  <line class="c_line c_ano--line" x1="172.55" y1="254.58" x2="202.28" y2="254.58" />
  <polygon
    class="c_ano--arrow"
    points="196.3,262 195.1,260.7 201.6,254.6 195.1,248.5 196.3,247.2 204.3,254.6 196.3,262"
  />
  <line class="c_line c_ano--line" x1="481.23" y1="274.06" x2="510.96" y2="274.06" />
  <polygon
    class="c_ano--arrow"
    points="505,281.5 503.7,280.1 510.3,274.1 503.7,268 505,266.6 512.9,274.1 505,281.5"
  />
</svg>
